<?xml version="1.0" standalone="no"?>
<!DOCTYPE svg PUBLIC "-//W3C//DTD SVG 20010904//EN"
 "http://www.w3.org/TR/2001/REC-SVG-20010904/DTD/svg10.dtd">
<svg version="1.0" xmlns="http://www.w3.org/2000/svg"
 width="1119.905262pt" height="14.139269pt" viewBox="0 0 1119.905262 14.139269"
 preserveAspectRatio="xMidYMid meet">
<metadata>
Created by potrace 1.12, written by Peter Selinger 2001-2015
</metadata>
<g transform="translate(-2.076803,14.449213) scale(0.100000,-0.100000)"
fill="#000000" stroke="none">
<path d="M5216 143 c-1 -2 -326 -4 -722 -6 -1189 -7 -2207 -16 -2244 -22 -19
-3 -262 -7 -540 -10 -539 -6 -741 -10 -1075 -22 -115 -4 -249 -8 -298 -8 -48
0 -87 -3 -87 -7 0 -4 -8 -7 -18 -6 -36 3 -215 -2 -211 -6 10 -11 268 -15 275
-5 3 6 16 8 28 5 11 -3 154 -5 316 -5 378 0 366 0 394 -11 27 -10 69 -2 60 11
-3 5 17 9 45 9 27 0 52 -4 55 -8 3 -5 240 -7 527 -6 345 2 538 -1 568 -8 63
-14 165 -13 197 3 5 3 56 4 114 3 58 -1 258 -5 445 -9 356 -7 445 -7 585 1
157 9 188 9 184 2 -3 -5 5 -8 18 -8 19 0 20 2 8 11 -12 8 -9 9 10 3 32 -9 219
-15 475 -14 127 0 241 -6 311 -15 82 -12 155 -14 275 -10 90 3 250 5 354 3
105 -2 332 -2 505 0 173 2 1125 4 2115 6 2361 4 2191 1 2665 41 96 8 244 17
327 20 84 3 166 11 182 16 16 6 58 8 95 6 69 -5 90 6 34 17 -145 29 -304 31
-2158 29 -1937 -3 -3182 -3 -3583 1 -125 1 -229 1 -231 -1z"/>
</g>
</svg>
